Coordinates
version=1
nRows=16
nColumns=33
inDegrees=yes

Units are S.I. units (second, meters, Newtons, ...)
Angles are in degrees.

endheader
time	ground_thorax_rot_x	ground_thorax_rot_y	ground_thorax_rot_z	ground_thorax_tx	ground_thorax_ty	ground_thorax_tz	clav_prot_r	clav_elev_r	scapula_abduction_r	scapula_elevation_r	scapula_upward_rot_r	scapula_winging_r	shoulder_elv_r	plane_of_elev_r	axial_rot_r	elbow_flexion_r	pro_sup_r	wrist_flex_r	wrist_dev_r	clav_prot_l	clav_elev_l	scapula_abduction_l	scapula_elevation_l	scapula_upward_rot_l	scapula_winging_l	shoulder_elv_l	plane_of_elev_l	axial_rot_l	elbow_flexion_l	pro_sup_l	wrist_flex_l	wrist_dev_l
      2.85000000	     -0.56351353	      3.52843927	     12.06613355	     -0.11250604	      1.02746054	      0.01801611	      7.72869812	    -11.25566753	     13.22519341	     -3.67295199	     -0.92303201	     -1.54504228	    -41.92097417	    -75.46994698	     95.53344170	    -81.30781608	   -152.21276518	     37.03212647	    -19.32395668	     11.54882333	     -1.81378138	    -15.44733959	    -20.58453390	    -36.44627865	     -0.12693774	     62.13450339	    -30.12450998	      1.75459982	     69.67082296	     18.61531004	      2.02116528	    -24.99999983
      2.86000000	     -0.67017279	      3.39573740	     12.22324402	     -0.11273533	      1.02726329	      0.01789646	      8.11381424	    -11.17043773	     14.05727781	     -3.74823223	     -0.54035540	     -1.91402204	    -40.01863273	    -75.16189055	     97.48146596	    -81.86392056	   -153.99139861	     33.98487799	    -16.95331945	     11.71440055	     -1.89996539	    -15.75475186	    -20.50170420	    -36.47101167	      0.01490899	     62.51077437	    -29.59341055	      2.23637081	     70.00359278	     17.85941102	      4.82240832	    -24.00151859
      2.87000000	     -0.69070559	      3.38595016	     12.17279737	     -0.11284343	      1.02747610	      0.01773906	      8.44535525	    -11.39290950	     14.71091545	     -4.02037601	     -0.36307155	     -2.07675500	    -37.77405450	    -74.86167985	     99.17406615	    -82.26783755	   -155.21258991	     32.34642446	    -15.55852907	     11.85829497	     -2.23808586	    -16.02580898	    -20.14492043	    -36.42660094	      0.17912696	     63.02238822	    -28.95729497	      2.56371544	     70.23445136	     17.62169922	      6.77375231	    -22.42665903
      2.88000000	     -0.75528073	      3.49531662	     12.16189819	     -0.11264543	      1.02713846	      0.01768303	      8.58582149	    -11.31235023	     15.15239148	     -4.12609396	      0.07355333	     -2.29582414	    -35.74469078	    -74.41686995	    100.95794505	    -82.69374483	   -156.36468255	     30.34623559	    -14.03083770	     12.02003061	     -2.30997755	    -16.27525472	    -19.95347778	    -36.19173146	      0.34094392	     63.41496794	    -28.15301053	      2.67871004	     70.33974680	     17.36427226	      8.47145085	    -20.88395431
      2.89000000	     -0.79453033	      3.69762260	     12.08818627	     -0.11244122	      1.02733585	      0.01753947	      8.75569884	    -11.65811432	     15.65503549	     -4.61795493	      0.50326860	     -2.35422247	    -35.09202440	    -74.14171160	    100.98255763	    -82.83833139	   -156.54129934	     30.03926898	    -13.83845095	     12.20029830	     -2.56536858	    -16.53278548	    -19.49008318	    -35.75777100	      0.55721209	     63.73433892	    -27.39356350	      2.56074999	     70.01264831	     17.35419351	      8.71087245	    -20.61755556
      2.90000000	     -0.82569851	      3.66133476	     12.19875109	     -0.11251796	      1.02694611	      0.01750430	      9.10828216	    -11.50797670	     16.43872061	     -4.63559846	      0.89741200	     -2.73858126	    -32.76355519	    -73.58040367	    103.00226026	    -83.37899446	   -158.05469688	     26.20431967	    -10.77259263	     12.47527334	     -2.80487041	    -17.01967051	    -19.20039952	    -35.67150451	      0.80753248	     63.94280388	    -26.71807352	      3.04548676	     70.07598890	     16.63819076	     11.49159947	    -18.08993474
      2.91000000	     -0.94829392	      3.69073586	     12.20184512	     -0.11258392	      1.02686533	      0.01722427	      9.44173974	    -11.76912074	     17.02343320	     -4.88076665	      0.92733310	     -2.85715032	    -29.88971636	    -73.03955975	    105.06669900	    -83.51708301	   -158.89503513	     24.11057788	     -8.99523775	     12.70535328	     -3.03531122	    -17.42171200	    -18.91909129	    -35.57009250	      1.02704754	     64.34986068	    -25.82126323	      3.35396354	     69.80740432	     16.21260115	     13.49140353	    -16.49952181
      2.92000000	     -1.07162940	      3.84617869	     12.10424530	     -0.11229951	      1.02670711	      0.01704671	      9.52924736	    -11.81461255	     17.41425949	     -5.12412882	      1.42967179	     -3.00329854	    -27.59986274	    -72.43724078	    106.92219665	    -83.46229007	   -159.44880431	     22.13195042	     -7.47723726	     12.97050368	     -3.23355108	    -17.83714172	    -18.53326577	    -35.18809207	      1.30551296	     64.58258620	    -24.89546653	      3.50040872	     69.30806245	     15.86104291	     14.85327786	    -15.45657572
      2.93000000	     -1.23389264	      3.93395083	     12.00882087	     -0.11225219	      1.02659669	      0.01672705	      9.86474978	    -12.18015643	     18.12156144	     -5.56333653	      1.70779524	     -3.12333788	    -25.66560079	    -71.86595756	    108.06270289	    -83.33666101	   -159.75791428	     20.51149829	     -6.15092676	     13.28211194	     -3.45849094	    -18.33460053	    -18.11289865	    -34.79599981	      1.61452199	     64.78790793	    -24.04217111	      3.64458516	     68.67587913	     15.53166019	     16.02158687	    -14.56853673
      2.94000000	     -1.40792058	      4.14129307	     12.08901649	     -0.11197245	      1.02708819	      0.01638012	     10.03766251	    -12.59859066	     18.67511802	     -6.15152354	      2.23232120	     -3.15210490	    -24.99894048	    -71.34417097	    108.09288244	    -82.59351281	   -159.82898791	     20.03370133	     -5.88872672	     13.48257700	     -3.81519152	    -18.63003060	    -17.54037243	    -34.32873550	      1.84590483	     65.04104073	    -23.24125341	      3.46391704	     67.59748134	     15.58751748	     16.25674373	    -14.25355546
      2.95000000	     -1.48015457	      4.18040780	     12.10257521	     -0.11182195	      1.02652819	      0.01621924	     10.27428676	    -12.26005068	     19.47307580	     -6.15879256	      3.03529094	     -3.63939924	    -23.01157424	    -70.44459864	    109.85434757	    -82.26406815	   -160.26033926	     16.89348886	     -3.02407037	     13.87034246	     -3.90970918	    -19.25905062	    -17.23637247	    -33.92785512	      2.21172231	     64.77213372	    -22.11896770	      4.04687120	     66.58071816	     14.84299564	     18.48850760	    -12.76452146
      2.96000000	     -1.71350308	      4.33554326	     11.98266682	     -0.11159073	      1.02685706	      0.01585328	     10.53973758	    -12.81265091	     20.20693809	     -6.87631764	      3.60145589	     -3.67200734	    -22.20621061	    -69.83888711	    109.90220789	    -81.35709345	   -160.28461191	     16.44141881	     -2.78975255	     14.13320429	     -4.28231372	    -19.66652938	    -16.63968822	    -33.44497286	      2.49359472	     65.10993313	    -21.32557671	      3.86359715	     65.49787268	     14.90716211	     18.71249818	    -12.46311716
      2.97000000	     -1.83233121	      4.28967855	     11.92961034	     -0.11153128	      1.02634371	      0.01543037	     10.85872232	    -12.62218143	     21.19549578	     -7.03811609	      4.47899624	     -4.16974847	    -20.29125756	    -69.09815184	    111.67893921	    -80.54358506	   -160.52949597	     14.07135685	     -0.49936326	     14.55709136	     -4.37542758	    -20.36487944	    -16.34404353	    -33.06223722	      2.89461942	     64.75247955	    -20.13162884	      4.64958400	     64.28640821	     14.34807966	     20.52556982	    -11.29696351
      2.98000000	     -1.95252201	      4.35035387	     12.01039972	     -0.11160217	      1.02618222	      0.01511006	     11.27057683	    -12.66562793	     22.00156624	     -7.15647277	      4.70883487	     -4.48354980	    -17.96861204	    -68.09738680	    113.28039386	    -79.49068995	   -160.65052323	     12.41370260	      0.95061107	     14.97720491	     -4.78160104	    -21.07823222	    -15.82257002	    -32.81694581	      3.28346042	     64.77744991	    -19.19527775	      5.00066256	     62.99064787	     14.13740124	     21.87445238	    -10.40400323
      2.99000000	     -2.20059716	      4.50990274	     11.89506340	     -0.11130115	      1.02650223	      0.01472323	     11.48651119	    -13.18018611	     22.69561604	     -7.86096424	      5.35243554	     -4.50186550	    -17.19467314	    -67.49141940	    113.39464828	    -78.17382049	   -160.66255476	     11.98073545	      1.13864963	     15.23139430	     -5.17777883	    -21.46599169	    -15.18240855	    -32.27797994	      3.55042409	     65.05191223	    -18.32074737	      4.82001365	     61.48882801	     14.30208868	     22.01958507	    -10.08136314
      3.00000000	     -2.30582918	      4.52010401	     11.87350427	     -0.11114299	      1.02585783	      0.01435654	     11.66884007	    -12.87825170	     23.51034021	     -7.94135629	      6.29966219	     -4.97858776	    -15.46912970	    -66.65441572	    115.14727144	    -76.78284574	   -160.94064680	     10.47189066	      2.71795819	     15.66089732	     -5.20304548	    -22.16661131	    -14.90742795	    -31.80535426	      3.97084257	     64.61767732	    -16.99731065	      5.32893485	     59.80041010	     14.23056004	     23.24544964	     -9.35574421
